{"accessors":[{"name":"Node-Mesh_0_positions","componentType":5126,"count":1815,"min":[-0.4243119955062866,-0.42344000935554504,-0.000003999999989900971],"max":[0.4243209958076477,0.42434799671173096,0.780007004737854],"type":"VEC3","bufferView":0,"byteOffset":0},{"name":"Node-Mesh_0_normals","componentType":5126,"count":1815,"min":[-1,-1,-1],"max":[1,1,1],"type":"VEC3","bufferView":1,"byteOffset":0},{"name":"Node-Mesh_0_texcoords","componentType":5126,"count":5145,"min":[-5.922313213348389,-1.559054970741272],"max":[5.922313213348389,2.312335968017578],"type":"VEC2","bufferView":2,"byteOffset":0},{"name":"Node-Mesh_0_indices","componentType":5123,"count":10806,"min":[0],"max":[5144],"type":"SCALAR","bufferView":3,"byteOffset":0}],"asset":{"generator":"obj2gltf","version":"2.0"},"buffers":[{"name":"cup-metalblue","byteLength":106332,"uri":"data:application/octet-stream;base64,"}],"bufferViews":[{"name":"bufferView_0","buffer":0,"byteLength":21780,"byteOffset":0,"byteStride":12,"target":34962},{"name":"bufferView_1","buffer":0,"byteLength":21780,"byteOffset":21780,"byteStride":12,"target":34962},{"name":"bufferView_2","buffer":0,"byteLength":41160,"byteOffset":43560,"byteStride":8,"target":34962},{"name":"bufferView_3","buffer":0,"byteLength":21612,"byteOffset":84720,"target":34963}],"materials":[{"name":"158861546","pbrMetallicRoughness":{"baseColorFactor":[0,0.5019607843137255,1,1],"metallicFactor":0,"roughnessFactor":1},"emissiveFactor":[0,0,0],"alphaMode":"OPAQUE","doubleSided":false}],"meshes":[{"name":"Node-Mesh","primitives":[{"attributes":{"POSITION":0,"NORMAL":1,"TEXCOORD_0":2},"indices":3,"material":0,"mode":4}]}],"nodes":[{"name":"Node","mesh":0}],"scene":0,"scenes":[{"nodes":[0]}]}